<svg width="341" height="88" viewBox="0 0 341 88" fill="none" xmlns="http://www.w3.org/2000/svg">
<g filter="url(#filter0_i_15_34)">
<path d="M67.1255 55.4199C67.1255 60.1221 66.4133 64.4512 64.9891 68.4071C63.5649 72.363 61.4286 75.7965 58.5802 78.7074C55.8067 81.6183 52.3211 83.8948 48.1234 85.5369C43.9258 87.179 39.0909 88 33.6189 88C28.072 88 23.1997 87.179 19.002 85.5369C14.8043 83.8948 11.2813 81.6183 8.43285 78.7074C5.65938 75.7965 3.56053 72.363 2.13632 68.4071C0.712106 64.4512 0 60.1221 0 55.4199V6.71756H17.5403V54.7481C17.5403 57.2112 17.9151 59.4877 18.6647 61.5776C19.4892 63.6675 20.6136 65.4962 22.0378 67.0636C23.4621 68.5564 25.1486 69.7506 27.0975 70.6463C29.1214 71.4674 31.2952 71.8779 33.6189 71.8779C35.9427 71.8779 38.079 71.4674 40.0279 70.6463C41.9768 69.7506 43.6634 68.5564 45.0876 67.0636C46.5118 65.4962 47.5987 63.6675 48.3483 61.5776C49.1729 59.4877 49.5851 57.2112 49.5851 54.7481V6.71756H67.1255V55.4199Z" fill="#23414E"/>
<path d="M81.2039 31.5725H97.395V38.9618H97.6199C98.1446 37.9169 98.8942 36.8719 99.8686 35.827C100.843 34.782 102.005 33.849 103.354 33.028C104.703 32.207 106.24 31.5352 107.964 31.0127C109.688 30.4902 111.562 30.229 113.586 30.229C117.859 30.229 121.307 30.9008 123.93 32.2443C126.554 33.5131 128.578 35.3045 130.002 37.6183C131.501 39.9322 132.513 42.6565 133.038 45.7914C133.563 48.9262 133.825 52.3223 133.825 55.9797V85.9847H116.959V59.3384C116.959 57.771 116.884 56.1663 116.734 54.5242C116.659 52.8075 116.322 51.24 115.722 49.8219C115.198 48.4037 114.336 47.2468 113.136 46.3512C112.012 45.4555 110.363 45.0076 108.189 45.0076C106.015 45.0076 104.254 45.4182 102.904 46.2392C101.555 46.9856 100.506 48.0305 99.7562 49.3741C99.0816 50.6429 98.6318 52.0984 98.4069 53.7405C98.182 55.3825 98.0696 57.0992 98.0696 58.8906V85.9847H81.2039V31.5725Z" fill="#23414E"/>
<path d="M145.993 31.5725H162.858V85.9847H145.993V31.5725ZM144.644 14.4427C144.644 11.7557 145.58 9.47922 147.454 7.61323C149.403 5.6726 151.727 4.70229 154.426 4.70229C157.124 4.70229 159.41 5.6726 161.284 7.61323C163.233 9.47922 164.208 11.7557 164.208 14.4427C164.208 17.1298 163.233 19.4436 161.284 21.3842C159.41 23.2502 157.124 24.1832 154.426 24.1832C151.727 24.1832 149.403 23.2502 147.454 21.3842C145.58 19.4436 144.644 17.1298 144.644 14.4427Z" fill="#23414E"/>
<path d="M325.484 79.1552H325.259C323.385 82.0662 320.874 84.1561 317.725 85.4249C314.652 86.6938 311.391 87.3283 307.943 87.3283C305.395 87.3283 302.921 86.9551 300.522 86.2087C298.199 85.5369 296.137 84.4919 294.338 83.0738C292.539 81.6556 291.115 79.9016 290.066 77.8117C289.016 75.7218 288.491 73.296 288.491 70.5344C288.491 67.3995 289.054 64.7498 290.178 62.5852C291.377 60.4207 292.952 58.6294 294.9 57.2112C296.924 55.7931 299.211 54.7108 301.759 53.9644C304.308 53.1433 306.931 52.5462 309.63 52.173C312.403 51.7998 315.139 51.5759 317.838 51.5013C320.611 51.4266 323.16 51.3893 325.484 51.3893C325.484 48.4037 324.397 46.0526 322.223 44.3359C320.124 42.5445 317.613 41.6489 314.69 41.6489C311.916 41.6489 309.367 42.246 307.044 43.4402C304.795 44.5598 302.771 46.1272 300.972 48.1425L291.977 38.9618C295.125 36.0509 298.798 33.8863 302.996 32.4682C307.194 30.9754 311.541 30.229 316.039 30.229C320.986 30.229 325.034 30.8634 328.182 32.1323C331.405 33.3265 333.954 35.1179 335.828 37.5064C337.777 39.8948 339.126 42.8431 339.876 46.3512C340.625 49.7846 341 53.7778 341 58.3308V85.9847H325.484V79.1552ZM321.323 62.1374C320.049 62.1374 318.437 62.212 316.489 62.3613C314.615 62.436 312.778 62.7345 310.979 63.257C309.255 63.7795 307.756 64.5632 306.482 65.6082C305.282 66.6531 304.683 68.1086 304.683 69.9746C304.683 71.9898 305.545 73.4826 307.269 74.4529C308.993 75.4232 310.792 75.9084 312.666 75.9084C314.315 75.9084 315.889 75.6845 317.388 75.2366C318.962 74.7888 320.349 74.1544 321.548 73.3333C322.748 72.5123 323.685 71.4674 324.359 70.1985C325.109 68.9296 325.484 67.4368 325.484 65.7201V62.1374H321.323Z" fill="#23414E"/>
<path fill-rule="evenodd" clip-rule="evenodd" d="M216.802 31.5725H228.712V85.9847H216.802V31.5725ZM228.712 23.5854V31.5725H233.668V85.9847H245.578V58.4428H245.803L264.243 85.9847H285.493L263.231 56.0916L284.931 31.5725H264.243L245.578 53.0687V1.34351H228.712V5.32397C227.641 4.90952 226.482 4.70229 225.235 4.70229C222.537 4.70229 220.213 5.6726 218.264 7.61323C216.39 9.47922 215.453 11.7557 215.453 14.4427C215.453 17.1298 216.39 19.4436 218.264 21.3842C220.213 23.2502 222.537 24.1832 225.235 24.1832C226.482 24.1832 227.641 23.9839 228.712 23.5854ZM228.712 23.5854V5.32397C229.959 5.80634 231.086 6.56943 232.094 7.61323C234.043 9.47922 235.017 11.7557 235.017 14.4427C235.017 17.1298 234.043 19.4436 232.094 21.3842C231.086 22.3879 229.959 23.1216 228.712 23.5854ZM180.822 45.0076H169.691V31.5725H180.822V21.944C180.822 18.9584 181.085 16.1595 181.609 13.5471C182.134 10.8601 183.146 8.5089 184.645 6.49364C186.144 4.47837 188.281 2.91094 191.054 1.79135C193.902 0.597115 197.613 0 202.185 0C203.909 0 205.596 0.0746386 207.245 0.223916C208.894 0.373193 210.506 0.63443 212.08 1.00763L211.293 15.2265C210.318 14.8533 209.419 14.592 208.594 14.4427C207.77 14.2188 206.833 14.1069 205.783 14.1069C203.085 14.1069 201.061 14.704 199.712 15.8982C198.363 17.0178 197.688 19.369 197.688 22.9517V31.5725H210.168V45.0076H197.688V85.9847H180.822V45.0076Z" fill="#23414E"/>
</g>
<defs>
<filter id="filter0_i_15_34" x="0" y="0" width="341" height="91" filterUnits="userSpaceOnUse" color-interpolation-filters="sRGB">
<feFlood flood-opacity="0" result="BackgroundImageFix"/>
<feBlend mode="normal" in="SourceGraphic" in2="BackgroundImageFix" result="shape"/>
<feColorMatrix in="SourceAlpha" type="matrix" values="0 0 0 0 0 0 0 0 0 0 0 0 0 0 0 0 0 0 127 0" result="hardAlpha"/>
<feOffset dy="3"/>
<feGaussianBlur stdDeviation="2"/>
<feComposite in2="hardAlpha" operator="arithmetic" k2="-1" k3="1"/>
<feColorMatrix type="matrix" values="0 0 0 0 0 0 0 0 0 0 0 0 0 0 0 0 0 0 0.25 0"/>
<feBlend mode="normal" in2="shape" result="effect1_innerShadow_15_34"/>
</filter>
</defs>
</svg>
